<?xml version="1.0" encoding="UTF-8" standalone="no"?><svg xmlns="http://www.w3.org/2000/svg" xmlns:xlink="http://www.w3.org/1999/xlink" contentStyleType="text/css" height="348px" preserveAspectRatio="none" style="width:546px;height:348px;background:#FFFFFF;" version="1.1" viewBox="0 0 546 348" width="546px" zoomAndPan="magnify"><defs/><g><text fill="#000000" font-family="Serif" font-size="10" lengthAdjust="spacing" textLength="11" x="2.5" y="25.3359">Th</text><text fill="#000000" font-family="Serif" font-size="10" lengthAdjust="spacing" textLength="9" x="19.5" y="25.3359">Fr</text><text fill="#000000" font-family="Serif" font-size="10" lengthAdjust="spacing" textLength="10" x="35" y="25.3359">Sa</text><text fill="#000000" font-family="Serif" font-size="10" lengthAdjust="spacing" textLength="11" x="50.5" y="25.3359">Su</text><text fill="#000000" font-family="Serif" font-size="10" lengthAdjust="spacing" textLength="14" x="65" y="25.3359">Mo</text><text fill="#000000" font-family="Serif" font-size="10" lengthAdjust="spacing" textLength="11" x="82.5" y="25.3359">Tu</text><text fill="#000000" font-family="Serif" font-size="10" lengthAdjust="spacing" textLength="13" x="97.5" y="25.3359">We</text><text fill="#000000" font-family="Serif" font-size="10" lengthAdjust="spacing" textLength="11" x="114.5" y="25.3359">Th</text><text fill="#000000" font-family="Serif" font-size="10" lengthAdjust="spacing" textLength="9" x="131.5" y="25.3359">Fr</text><text fill="#000000" font-family="Serif" font-size="10" lengthAdjust="spacing" textLength="10" x="147" y="25.3359">Sa</text><text fill="#000000" font-family="Serif" font-size="10" lengthAdjust="spacing" textLength="11" x="162.5" y="25.3359">Su</text><text fill="#000000" font-family="Serif" font-size="10" lengthAdjust="spacing" textLength="14" x="177" y="25.3359">Mo</text><text fill="#000000" font-family="Serif" font-size="10" lengthAdjust="spacing" textLength="11" x="194.5" y="25.3359">Tu</text><text fill="#000000" font-family="Serif" font-size="10" lengthAdjust="spacing" textLength="13" x="209.5" y="25.3359">We</text><text fill="#000000" font-family="Serif" font-size="10" lengthAdjust="spacing" textLength="11" x="226.5" y="25.3359">Th</text><text fill="#000000" font-family="Serif" font-size="10" lengthAdjust="spacing" textLength="9" x="243.5" y="25.3359">Fr</text><text fill="#000000" font-family="Serif" font-size="10" lengthAdjust="spacing" textLength="10" x="259" y="25.3359">Sa</text><text fill="#000000" font-family="Serif" font-size="10" lengthAdjust="spacing" textLength="11" x="274.5" y="25.3359">Su</text><text fill="#000000" font-family="Serif" font-size="10" lengthAdjust="spacing" textLength="14" x="289" y="25.3359">Mo</text><text fill="#000000" font-family="Serif" font-size="10" lengthAdjust="spacing" textLength="11" x="306.5" y="25.3359">Tu</text><text fill="#000000" font-family="Serif" font-size="10" lengthAdjust="spacing" textLength="13" x="321.5" y="25.3359">We</text><text fill="#000000" font-family="Serif" font-size="10" lengthAdjust="spacing" textLength="11" x="338.5" y="25.3359">Th</text><text fill="#000000" font-family="Serif" font-size="10" lengthAdjust="spacing" textLength="9" x="355.5" y="25.3359">Fr</text><text fill="#000000" font-family="Serif" font-size="10" lengthAdjust="spacing" textLength="10" x="371" y="25.3359">Sa</text><text fill="#000000" font-family="Serif" font-size="10" lengthAdjust="spacing" textLength="11" x="386.5" y="25.3359">Su</text><text fill="#000000" font-family="Serif" font-size="10" lengthAdjust="spacing" textLength="14" x="401" y="25.3359">Mo</text><text fill="#000000" font-family="Serif" font-size="10" lengthAdjust="spacing" textLength="11" x="418.5" y="25.3359">Tu</text><text fill="#000000" font-family="Serif" font-size="10" lengthAdjust="spacing" textLength="10" x="3" y="37.3359">19</text><text fill="#000000" font-family="Serif" font-size="10" lengthAdjust="spacing" textLength="10" x="19" y="37.3359">20</text><text fill="#000000" font-family="Serif" font-size="10" lengthAdjust="spacing" textLength="10" x="35" y="37.3359">21</text><text fill="#000000" font-family="Serif" font-size="10" lengthAdjust="spacing" textLength="10" x="51" y="37.3359">22</text><text fill="#000000" font-family="Serif" font-size="10" lengthAdjust="spacing" textLength="10" x="67" y="37.3359">23</text><text fill="#000000" font-family="Serif" font-size="10" lengthAdjust="spacing" textLength="10" x="83" y="37.3359">24</text><text fill="#000000" font-family="Serif" font-size="10" lengthAdjust="spacing" textLength="10" x="99" y="37.3359">25</text><text fill="#000000" font-family="Serif" font-size="10" lengthAdjust="spacing" textLength="10" x="115" y="37.3359">26</text><text fill="#000000" font-family="Serif" font-size="10" lengthAdjust="spacing" textLength="10" x="131" y="37.3359">27</text><text fill="#000000" font-family="Serif" font-size="10" lengthAdjust="spacing" textLength="10" x="147" y="37.3359">28</text><text fill="#000000" font-family="Serif" font-size="10" lengthAdjust="spacing" textLength="10" x="163" y="37.3359">29</text><text fill="#000000" font-family="Serif" font-size="10" lengthAdjust="spacing" textLength="10" x="179" y="37.3359">30</text><text fill="#000000" font-family="Serif" font-size="10" lengthAdjust="spacing" textLength="10" x="195" y="37.3359">31</text><text fill="#000000" font-family="Serif" font-size="10" lengthAdjust="spacing" textLength="5" x="213.5" y="37.3359">1</text><text fill="#000000" font-family="Serif" font-size="10" lengthAdjust="spacing" textLength="5" x="229.5" y="37.3359">2</text><text fill="#000000" font-family="Serif" font-size="10" lengthAdjust="spacing" textLength="5" x="245.5" y="37.3359">3</text><text fill="#000000" font-family="Serif" font-size="10" lengthAdjust="spacing" textLength="5" x="261.5" y="37.3359">4</text><text fill="#000000" font-family="Serif" font-size="10" lengthAdjust="spacing" textLength="5" x="277.5" y="37.3359">5</text><text fill="#000000" font-family="Serif" font-size="10" lengthAdjust="spacing" textLength="5" x="293.5" y="37.3359">6</text><text fill="#000000" font-family="Serif" font-size="10" lengthAdjust="spacing" textLength="5" x="309.5" y="37.3359">7</text><text fill="#000000" font-family="Serif" font-size="10" lengthAdjust="spacing" textLength="5" x="325.5" y="37.3359">8</text><text fill="#000000" font-family="Serif" font-size="10" lengthAdjust="spacing" textLength="5" x="341.5" y="37.3359">9</text><text fill="#000000" font-family="Serif" font-size="10" lengthAdjust="spacing" textLength="10" x="355" y="37.3359">10</text><text fill="#000000" font-family="Serif" font-size="10" lengthAdjust="spacing" textLength="10" x="371" y="37.3359">11</text><text fill="#000000" font-family="Serif" font-size="10" lengthAdjust="spacing" textLength="10" x="387" y="37.3359">12</text><text fill="#000000" font-family="Serif" font-size="10" lengthAdjust="spacing" textLength="10" x="403" y="37.3359">13</text><text fill="#000000" font-family="Serif" font-size="10" lengthAdjust="spacing" textLength="10" x="419" y="37.3359">14</text><text fill="#000000" font-family="Serif" font-size="12" font-weight="bold" lengthAdjust="spacing" textLength="70" x="69" y="11.2031">January 2023</text><text fill="#000000" font-family="Serif" font-size="12" font-weight="bold" lengthAdjust="spacing" textLength="75" x="282.5" y="11.2031">February 2023</text><line style="stroke:#C0C0C0;stroke-width:1.0;" x1="0" x2="0" y1="41" y2="310.0156"/><line style="stroke:#C0C0C0;stroke-width:1.0;" x1="16" x2="16" y1="41" y2="310.0156"/><line style="stroke:#C0C0C0;stroke-width:1.0;" x1="32" x2="32" y1="41" y2="310.0156"/><line style="stroke:#C0C0C0;stroke-width:1.0;" x1="48" x2="48" y1="41" y2="310.0156"/><line style="stroke:#C0C0C0;stroke-width:1.0;" x1="64" x2="64" y1="41" y2="310.0156"/><line style="stroke:#C0C0C0;stroke-width:1.0;" x1="80" x2="80" y1="41" y2="310.0156"/><line style="stroke:#C0C0C0;stroke-width:1.0;" x1="96" x2="96" y1="41" y2="310.0156"/><line style="stroke:#C0C0C0;stroke-width:1.0;" x1="112" x2="112" y1="41" y2="310.0156"/><line style="stroke:#C0C0C0;stroke-width:1.0;" x1="128" x2="128" y1="41" y2="310.0156"/><line style="stroke:#C0C0C0;stroke-width:1.0;" x1="144" x2="144" y1="41" y2="310.0156"/><line style="stroke:#C0C0C0;stroke-width:1.0;" x1="160" x2="160" y1="41" y2="310.0156"/><line style="stroke:#C0C0C0;stroke-width:1.0;" x1="176" x2="176" y1="41" y2="310.0156"/><line style="stroke:#C0C0C0;stroke-width:1.0;" x1="192" x2="192" y1="41" y2="310.0156"/><line style="stroke:#C0C0C0;stroke-width:1.0;" x1="208" x2="208" y1="41" y2="310.0156"/><line style="stroke:#C0C0C0;stroke-width:1.0;" x1="224" x2="224" y1="41" y2="310.0156"/><line style="stroke:#C0C0C0;stroke-width:1.0;" x1="240" x2="240" y1="41" y2="310.0156"/><line style="stroke:#C0C0C0;stroke-width:1.0;" x1="256" x2="256" y1="41" y2="310.0156"/><line style="stroke:#C0C0C0;stroke-width:1.0;" x1="272" x2="272" y1="41" y2="310.0156"/><line style="stroke:#C0C0C0;stroke-width:1.0;" x1="288" x2="288" y1="41" y2="310.0156"/><line style="stroke:#C0C0C0;stroke-width:1.0;" x1="304" x2="304" y1="41" y2="310.0156"/><line style="stroke:#C0C0C0;stroke-width:1.0;" x1="320" x2="320" y1="41" y2="310.0156"/><line style="stroke:#C0C0C0;stroke-width:1.0;" x1="336" x2="336" y1="41" y2="310.0156"/><line style="stroke:#C0C0C0;stroke-width:1.0;" x1="352" x2="352" y1="41" y2="310.0156"/><line style="stroke:#C0C0C0;stroke-width:1.0;" x1="368" x2="368" y1="41" y2="310.0156"/><line style="stroke:#C0C0C0;stroke-width:1.0;" x1="384" x2="384" y1="41" y2="310.0156"/><line style="stroke:#C0C0C0;stroke-width:1.0;" x1="400" x2="400" y1="41" y2="310.0156"/><line style="stroke:#C0C0C0;stroke-width:1.0;" x1="416" x2="416" y1="41" y2="310.0156"/><line style="stroke:#C0C0C0;stroke-width:1.0;" x1="432" x2="432" y1="41" y2="310.0156"/><line style="stroke:#C0C0C0;stroke-width:1.0;" x1="0" x2="432" y1="41" y2="41"/><line style="stroke:#C0C0C0;stroke-width:1.0;" x1="0" x2="432" y1="310.0156" y2="310.0156"/><line style="stroke:#181818;stroke-width:1.5;" x1="23" x2="23" y1="72.9102" y2="117.2979"/><line style="stroke:#181818;stroke-width:1.5;" x1="23" x2="31" y1="117.2979" y2="117.2979"/><polygon fill="#181818" points="27,113.2979,27,117.2979,27,121.2979,31,117.2979" style="stroke:#181818;stroke-width:1.5;"/><line style="stroke:#181818;stroke-width:1.5;" x1="23" x2="23" y1="72.9102" y2="134.2529"/><line style="stroke:#181818;stroke-width:1.5;" x1="23" x2="31" y1="134.2529" y2="134.2529"/><polygon fill="#181818" points="27,130.2529,27,134.2529,27,138.2529,31,134.2529" style="stroke:#181818;stroke-width:1.5;"/><line style="stroke:#181818;stroke-width:1.5;" x1="103" x2="103" y1="123.7754" y2="151.208"/><line style="stroke:#181818;stroke-width:1.5;" x1="103" x2="111" y1="151.208" y2="151.208"/><polygon fill="#181818" points="107,147.208,107,151.208,107,155.208,111,151.208" style="stroke:#181818;stroke-width:1.5;"/><line style="stroke:#181818;stroke-width:1.5;" x1="167" x2="167" y1="174.6406" y2="185.1182"/><line style="stroke:#181818;stroke-width:1.5;" x1="167" x2="175" y1="185.1182" y2="185.1182"/><polygon fill="#181818" points="171,181.1182,171,185.1182,171,189.1182,175,185.1182" style="stroke:#181818;stroke-width:1.5;"/><line style="stroke:#181818;stroke-width:1.5;" x1="327" x2="327" y1="256.4609" y2="266.9385"/><line style="stroke:#181818;stroke-width:1.5;" x1="327" x2="335" y1="266.9385" y2="266.9385"/><polygon fill="#181818" points="331,262.9385,331,266.9385,331,270.9385,335,266.9385" style="stroke:#181818;stroke-width:1.5;"/><rect fill="#E2E2F0" height="12.9551" style="stroke:none;stroke-width:1.0;" width="428" x="2" y="43"/><line style="stroke:#181818;stroke-width:1.0;" x1="2" x2="430" y1="43" y2="43"/><line style="stroke:#181818;stroke-width:1.0;" x1="2" x2="430" y1="55.9551" y2="55.9551"/><line style="stroke:#181818;stroke-width:1.0;" x1="2" x2="2" y1="43" y2="55.9551"/><line style="stroke:#181818;stroke-width:1.0;" x1="430" x2="430" y1="43" y2="55.9551"/><rect fill="#E2E2F0" height="12.9551" style="stroke:none;stroke-width:1.0;" width="28" x="2" y="59.9551"/><line style="stroke:#181818;stroke-width:1.0;" x1="2" x2="30" y1="59.9551" y2="59.9551"/><line style="stroke:#181818;stroke-width:1.0;" x1="2" x2="30" y1="72.9102" y2="72.9102"/><line style="stroke:#181818;stroke-width:1.0;" x1="2" x2="2" y1="59.9551" y2="72.9102"/><line style="stroke:#181818;stroke-width:1.0;" x1="30" x2="30" y1="59.9551" y2="72.9102"/><rect fill="#E2E2F0" height="12.9551" style="stroke:none;stroke-width:1.0;" width="28" x="2" y="76.9102"/><line style="stroke:#181818;stroke-width:1.0;" x1="2" x2="30" y1="76.9102" y2="76.9102"/><line style="stroke:#181818;stroke-width:1.0;" x1="2" x2="30" y1="89.8652" y2="89.8652"/><line style="stroke:#181818;stroke-width:1.0;" x1="2" x2="2" y1="76.9102" y2="89.8652"/><line style="stroke:#181818;stroke-width:1.0;" x1="30" x2="30" y1="76.9102" y2="89.8652"/><rect fill="#E2E2F0" height="12.9551" style="stroke:none;stroke-width:1.0;" width="28" x="2" y="93.8652"/><line style="stroke:#181818;stroke-width:1.0;" x1="2" x2="30" y1="93.8652" y2="93.8652"/><line style="stroke:#181818;stroke-width:1.0;" x1="2" x2="30" y1="106.8203" y2="106.8203"/><line style="stroke:#181818;stroke-width:1.0;" x1="2" x2="2" y1="93.8652" y2="106.8203"/><line style="stroke:#181818;stroke-width:1.0;" x1="30" x2="30" y1="93.8652" y2="106.8203"/><rect fill="#E2E2F0" height="12.9551" style="stroke:none;stroke-width:1.0;" width="76" x="34" y="110.8203"/><line style="stroke:#181818;stroke-width:1.0;" x1="34" x2="110" y1="110.8203" y2="110.8203"/><line style="stroke:#181818;stroke-width:1.0;" x1="34" x2="110" y1="123.7754" y2="123.7754"/><line style="stroke:#181818;stroke-width:1.0;" x1="34" x2="34" y1="110.8203" y2="123.7754"/><line style="stroke:#181818;stroke-width:1.0;" x1="110" x2="110" y1="110.8203" y2="123.7754"/><rect fill="#E2E2F0" height="12.9551" style="stroke:none;stroke-width:1.0;" width="76" x="34" y="127.7754"/><line style="stroke:#181818;stroke-width:1.0;" x1="34" x2="110" y1="127.7754" y2="127.7754"/><line style="stroke:#181818;stroke-width:1.0;" x1="34" x2="110" y1="140.7305" y2="140.7305"/><line style="stroke:#181818;stroke-width:1.0;" x1="34" x2="34" y1="127.7754" y2="140.7305"/><line style="stroke:#181818;stroke-width:1.0;" x1="110" x2="110" y1="127.7754" y2="140.7305"/><rect fill="#E2E2F0" height="12.9551" style="stroke:none;stroke-width:1.0;" width="28" x="114" y="144.7305"/><line style="stroke:#181818;stroke-width:1.0;" x1="114" x2="142" y1="144.7305" y2="144.7305"/><line style="stroke:#181818;stroke-width:1.0;" x1="114" x2="142" y1="157.6855" y2="157.6855"/><line style="stroke:#181818;stroke-width:1.0;" x1="114" x2="114" y1="144.7305" y2="157.6855"/><line style="stroke:#181818;stroke-width:1.0;" x1="142" x2="142" y1="144.7305" y2="157.6855"/><rect fill="#E2E2F0" height="12.9551" style="stroke:none;stroke-width:1.0;" width="92" x="82" y="161.6855"/><line style="stroke:#181818;stroke-width:1.0;" x1="82" x2="174" y1="161.6855" y2="161.6855"/><line style="stroke:#181818;stroke-width:1.0;" x1="82" x2="174" y1="174.6406" y2="174.6406"/><line style="stroke:#181818;stroke-width:1.0;" x1="82" x2="82" y1="161.6855" y2="174.6406"/><line style="stroke:#181818;stroke-width:1.0;" x1="174" x2="174" y1="161.6855" y2="174.6406"/><rect fill="#E2E2F0" height="12.9551" style="stroke:none;stroke-width:1.0;" width="28" x="178" y="178.6406"/><line style="stroke:#181818;stroke-width:1.0;" x1="178" x2="206" y1="178.6406" y2="178.6406"/><line style="stroke:#181818;stroke-width:1.0;" x1="178" x2="206" y1="191.5957" y2="191.5957"/><line style="stroke:#181818;stroke-width:1.0;" x1="178" x2="178" y1="178.6406" y2="191.5957"/><line style="stroke:#181818;stroke-width:1.0;" x1="206" x2="206" y1="178.6406" y2="191.5957"/><rect fill="#E2E2F0" height="12.9551" style="stroke:none;stroke-width:1.0;" width="76" x="178" y="195.5957"/><line style="stroke:#181818;stroke-width:1.0;" x1="178" x2="254" y1="195.5957" y2="195.5957"/><line style="stroke:#181818;stroke-width:1.0;" x1="178" x2="254" y1="208.5508" y2="208.5508"/><line style="stroke:#181818;stroke-width:1.0;" x1="178" x2="178" y1="195.5957" y2="208.5508"/><line style="stroke:#181818;stroke-width:1.0;" x1="254" x2="254" y1="195.5957" y2="208.5508"/><rect fill="#E2E2F0" height="12.9551" style="stroke:none;stroke-width:1.0;" width="92" x="242" y="212.5508"/><line style="stroke:#181818;stroke-width:1.0;" x1="242" x2="334" y1="212.5508" y2="212.5508"/><line style="stroke:#181818;stroke-width:1.0;" x1="242" x2="334" y1="225.5059" y2="225.5059"/><line style="stroke:#181818;stroke-width:1.0;" x1="242" x2="242" y1="212.5508" y2="225.5059"/><line style="stroke:#181818;stroke-width:1.0;" x1="334" x2="334" y1="212.5508" y2="225.5059"/><polygon fill="#000000" points="344,229.5059,349,234.5059,344,239.5059,339,234.5059" style="stroke:#000000;stroke-width:1.0;"/><rect fill="#E2E2F0" height="12.9551" style="stroke:none;stroke-width:1.0;" width="92" x="242" y="243.5059"/><line style="stroke:#181818;stroke-width:1.0;" x1="242" x2="334" y1="243.5059" y2="243.5059"/><line style="stroke:#181818;stroke-width:1.0;" x1="242" x2="334" y1="256.4609" y2="256.4609"/><line style="stroke:#181818;stroke-width:1.0;" x1="242" x2="242" y1="243.5059" y2="256.4609"/><line style="stroke:#181818;stroke-width:1.0;" x1="334" x2="334" y1="243.5059" y2="256.4609"/><path d="M336,275.416 L336,296.0156 L465,296.0156 L465,285.416 L455,275.416 L336,275.416 " fill="#FEFFDD" style="stroke:#181818;stroke-width:0.5;"/><path d="M455,275.416 L455,285.416 L465,285.416 L455,275.416 " fill="#FEFFDD" style="stroke:#181818;stroke-width:0.5;"/><text fill="#000000" font-family="sans-serif" font-size="9" lengthAdjust="spacing" textLength="108" x="342" y="289.1172">no coding at this point!</text><rect fill="#E2E2F0" height="12.9551" style="stroke:none;stroke-width:1.0;" width="76" x="338" y="260.4609"/><line style="stroke:#181818;stroke-width:1.0;" x1="338" x2="414" y1="260.4609" y2="260.4609"/><line style="stroke:#181818;stroke-width:1.0;" x1="338" x2="414" y1="273.416" y2="273.416"/><line style="stroke:#181818;stroke-width:1.0;" x1="338" x2="338" y1="260.4609" y2="273.416"/><line style="stroke:#181818;stroke-width:1.0;" x1="414" x2="414" y1="260.4609" y2="273.416"/><polygon fill="#000000" points="424,298.0156,429,303.0156,424,308.0156,419,303.0156" style="stroke:#000000;stroke-width:1.0;"/><text fill="#000000" font-family="sans-serif" font-size="11" lengthAdjust="spacing" textLength="45" x="6" y="53.6348">Timeline</text><text fill="#000000" font-family="sans-serif" font-size="11" lengthAdjust="spacing" textLength="113" x="34" y="70.5898">Gather Requirements</text><text fill="#000000" font-family="sans-serif" font-size="11" lengthAdjust="spacing" textLength="100" x="34" y="87.5449">Greate Gantt Chart</text><text fill="#000000" font-family="sans-serif" font-size="11" lengthAdjust="spacing" textLength="63" x="34" y="104.5">Buy Domain</text><text fill="#000000" font-family="sans-serif" font-size="11" lengthAdjust="spacing" textLength="149" x="114" y="121.4551">Create &amp; Test API Endpoints</text><text fill="#000000" font-family="sans-serif" font-size="11" lengthAdjust="spacing" textLength="93" x="114" y="138.4102">Design webpages</text><text fill="#000000" font-family="sans-serif" font-size="11" lengthAdjust="spacing" textLength="182" x="146" y="155.3652">API and Front-end works together</text><text fill="#000000" font-family="sans-serif" font-size="11" lengthAdjust="spacing" textLength="139" x="178" y="172.3203">Login and register WORKS</text><text fill="#000000" font-family="sans-serif" font-size="11" lengthAdjust="spacing" textLength="230" x="210" y="189.2754">Page loading &amp; Pattern match search works</text><text fill="#000000" font-family="sans-serif" font-size="11" lengthAdjust="spacing" textLength="147" x="258" y="206.2305">Complete required features</text><text fill="#000000" font-family="sans-serif" font-size="11" lengthAdjust="spacing" textLength="111" x="338" y="223.1855">Bugfixing/Extra time</text><text fill="#000000" font-family="sans-serif" font-size="11" lengthAdjust="spacing" textLength="64" x="352" y="238.6631">Code freeze</text><text fill="#000000" font-family="sans-serif" font-size="11" lengthAdjust="spacing" textLength="54" x="246" y="254.1406">Slide Deck</text><text fill="#000000" font-family="sans-serif" font-size="11" lengthAdjust="spacing" textLength="126" x="418" y="271.0957">Presentation rehearsals</text><text fill="#000000" font-family="sans-serif" font-size="11" lengthAdjust="spacing" textLength="96" x="432" y="307.1729">Final presentation</text><text fill="#000000" font-family="Serif" font-size="10" lengthAdjust="spacing" textLength="10" x="3" y="331.3516">19</text><text fill="#000000" font-family="Serif" font-size="10" lengthAdjust="spacing" textLength="10" x="19" y="331.3516">20</text><text fill="#000000" font-family="Serif" font-size="10" lengthAdjust="spacing" textLength="10" x="35" y="331.3516">21</text><text fill="#000000" font-family="Serif" font-size="10" lengthAdjust="spacing" textLength="10" x="51" y="331.3516">22</text><text fill="#000000" font-family="Serif" font-size="10" lengthAdjust="spacing" textLength="10" x="67" y="331.3516">23</text><text fill="#000000" font-family="Serif" font-size="10" lengthAdjust="spacing" textLength="10" x="83" y="331.3516">24</text><text fill="#000000" font-family="Serif" font-size="10" lengthAdjust="spacing" textLength="10" x="99" y="331.3516">25</text><text fill="#000000" font-family="Serif" font-size="10" lengthAdjust="spacing" textLength="10" x="115" y="331.3516">26</text><text fill="#000000" font-family="Serif" font-size="10" lengthAdjust="spacing" textLength="10" x="131" y="331.3516">27</text><text fill="#000000" font-family="Serif" font-size="10" lengthAdjust="spacing" textLength="10" x="147" y="331.3516">28</text><text fill="#000000" font-family="Serif" font-size="10" lengthAdjust="spacing" textLength="10" x="163" y="331.3516">29</text><text fill="#000000" font-family="Serif" font-size="10" lengthAdjust="spacing" textLength="10" x="179" y="331.3516">30</text><text fill="#000000" font-family="Serif" font-size="10" lengthAdjust="spacing" textLength="10" x="195" y="331.3516">31</text><text fill="#000000" font-family="Serif" font-size="10" lengthAdjust="spacing" textLength="5" x="213.5" y="331.3516">1</text><text fill="#000000" font-family="Serif" font-size="10" lengthAdjust="spacing" textLength="5" x="229.5" y="331.3516">2</text><text fill="#000000" font-family="Serif" font-size="10" lengthAdjust="spacing" textLength="5" x="245.5" y="331.3516">3</text><text fill="#000000" font-family="Serif" font-size="10" lengthAdjust="spacing" textLength="5" x="261.5" y="331.3516">4</text><text fill="#000000" font-family="Serif" font-size="10" lengthAdjust="spacing" textLength="5" x="277.5" y="331.3516">5</text><text fill="#000000" font-family="Serif" font-size="10" lengthAdjust="spacing" textLength="5" x="293.5" y="331.3516">6</text><text fill="#000000" font-family="Serif" font-size="10" lengthAdjust="spacing" textLength="5" x="309.5" y="331.3516">7</text><text fill="#000000" font-family="Serif" font-size="10" lengthAdjust="spacing" textLength="5" x="325.5" y="331.3516">8</text><text fill="#000000" font-family="Serif" font-size="10" lengthAdjust="spacing" textLength="5" x="341.5" y="331.3516">9</text><text fill="#000000" font-family="Serif" font-size="10" lengthAdjust="spacing" textLength="10" x="355" y="331.3516">10</text><text fill="#000000" font-family="Serif" font-size="10" lengthAdjust="spacing" textLength="10" x="371" y="331.3516">11</text><text fill="#000000" font-family="Serif" font-size="10" lengthAdjust="spacing" textLength="10" x="387" y="331.3516">12</text><text fill="#000000" font-family="Serif" font-size="10" lengthAdjust="spacing" textLength="10" x="403" y="331.3516">13</text><text fill="#000000" font-family="Serif" font-size="10" lengthAdjust="spacing" textLength="10" x="419" y="331.3516">14</text><text fill="#000000" font-family="Serif" font-size="10" lengthAdjust="spacing" textLength="11" x="2.5" y="319.3516">Th</text><text fill="#000000" font-family="Serif" font-size="10" lengthAdjust="spacing" textLength="9" x="19.5" y="319.3516">Fr</text><text fill="#000000" font-family="Serif" font-size="10" lengthAdjust="spacing" textLength="10" x="35" y="319.3516">Sa</text><text fill="#000000" font-family="Serif" font-size="10" lengthAdjust="spacing" textLength="11" x="50.5" y="319.3516">Su</text><text fill="#000000" font-family="Serif" font-size="10" lengthAdjust="spacing" textLength="14" x="65" y="319.3516">Mo</text><text fill="#000000" font-family="Serif" font-size="10" lengthAdjust="spacing" textLength="11" x="82.5" y="319.3516">Tu</text><text fill="#000000" font-family="Serif" font-size="10" lengthAdjust="spacing" textLength="13" x="97.5" y="319.3516">We</text><text fill="#000000" font-family="Serif" font-size="10" lengthAdjust="spacing" textLength="11" x="114.5" y="319.3516">Th</text><text fill="#000000" font-family="Serif" font-size="10" lengthAdjust="spacing" textLength="9" x="131.5" y="319.3516">Fr</text><text fill="#000000" font-family="Serif" font-size="10" lengthAdjust="spacing" textLength="10" x="147" y="319.3516">Sa</text><text fill="#000000" font-family="Serif" font-size="10" lengthAdjust="spacing" textLength="11" x="162.5" y="319.3516">Su</text><text fill="#000000" font-family="Serif" font-size="10" lengthAdjust="spacing" textLength="14" x="177" y="319.3516">Mo</text><text fill="#000000" font-family="Serif" font-size="10" lengthAdjust="spacing" textLength="11" x="194.5" y="319.3516">Tu</text><text fill="#000000" font-family="Serif" font-size="10" lengthAdjust="spacing" textLength="13" x="209.5" y="319.3516">We</text><text fill="#000000" font-family="Serif" font-size="10" lengthAdjust="spacing" textLength="11" x="226.5" y="319.3516">Th</text><text fill="#000000" font-family="Serif" font-size="10" lengthAdjust="spacing" textLength="9" x="243.5" y="319.3516">Fr</text><text fill="#000000" font-family="Serif" font-size="10" lengthAdjust="spacing" textLength="10" x="259" y="319.3516">Sa</text><text fill="#000000" font-family="Serif" font-size="10" lengthAdjust="spacing" textLength="11" x="274.5" y="319.3516">Su</text><text fill="#000000" font-family="Serif" font-size="10" lengthAdjust="spacing" textLength="14" x="289" y="319.3516">Mo</text><text fill="#000000" font-family="Serif" font-size="10" lengthAdjust="spacing" textLength="11" x="306.5" y="319.3516">Tu</text><text fill="#000000" font-family="Serif" font-size="10" lengthAdjust="spacing" textLength="13" x="321.5" y="319.3516">We</text><text fill="#000000" font-family="Serif" font-size="10" lengthAdjust="spacing" textLength="11" x="338.5" y="319.3516">Th</text><text fill="#000000" font-family="Serif" font-size="10" lengthAdjust="spacing" textLength="9" x="355.5" y="319.3516">Fr</text><text fill="#000000" font-family="Serif" font-size="10" lengthAdjust="spacing" textLength="10" x="371" y="319.3516">Sa</text><text fill="#000000" font-family="Serif" font-size="10" lengthAdjust="spacing" textLength="11" x="386.5" y="319.3516">Su</text><text fill="#000000" font-family="Serif" font-size="10" lengthAdjust="spacing" textLength="14" x="401" y="319.3516">Mo</text><text fill="#000000" font-family="Serif" font-size="10" lengthAdjust="spacing" textLength="11" x="418.5" y="319.3516">Tu</text><text fill="#000000" font-family="Serif" font-size="12" font-weight="bold" lengthAdjust="spacing" textLength="70" x="69" y="345.2188">January 2023</text><text fill="#000000" font-family="Serif" font-size="12" font-weight="bold" lengthAdjust="spacing" textLength="75" x="282.5" y="345.2188">February 2023</text><!--MD5=[80c04ed264f70913841efd84dbd61da0]
@startgantt
Project starts 2023-01-19
[Timeline] starts 2023-01-19
[Timeline] ends 2023-02-14
[Gather Requirements] starts 2023-01-19
[Gather Requirements] ends 2023-01-20
[Greate Gantt Chart] starts 2023-01-19
[Greate Gantt Chart] ends 2023-01-20
[Buy Domain] starts 2023-01-19
[Buy Domain] ends 2023-01-20
[Create & Test API Endpoints] starts at [Gather Requirements]'s end
[Create & Test API Endpoints] ends 2023-01-25
[Design webpages] starts at [Gather Requirements]'s end
[Design webpages] ends 2023-01-25
[API and Front-end works together] starts at [Create & Test API Endpoints]'s end
[API and Front-end works together] ends 2023-01-27
[Login and register WORKS] starts 2023-01-24
[Login and register WORKS] ends 2023-01-29
[Page loading & Pattern match search works] starts at [Login and register WORKS]'s end
[Page loading & Pattern match search works] ends 2023-01-31
[Complete required features] starts 2023-01-30
[Complete required features] ends 2023-02-03
[Bugfixing/Extra time] starts 2023-02-03
[Bugfixing/Extra time] ends 2023-02-08
[Code freeze] happens at 2023-02-09
[Slide Deck] starts 2023-02-03
[Slide Deck] ends 2023-02-08
[Presentation rehearsals] starts at [Slide Deck]'s end
[Presentation rehearsals] ends 2023-02-13
note bottom
    no coding at this point!
end note
[Final presentation] happens at 2023-02-14
@endgantt

PlantUML version 1.2022.7(Mon Aug 22 13:01:30 EDT 2022)
(GPL source distribution)
Java Runtime: Java(TM) SE Runtime Environment
JVM: Java HotSpot(TM) 64-Bit Server VM
Default Encoding: UTF-8
Language: en
Country: US
--></g></svg>